<svg width="387" height="92" viewBox="0 0 387 92" fill="none" xmlns="http://www.w3.org/2000/svg">
<path d="M49.875 41.425C49.875 44.225 48.925 46.6 47.025 48.55C45.175 50.45 42.575 51.75 39.225 52.45C42.775 53.05 45.95 54.45 48.75 56.65C50.15 57.8 51.275 59.25 52.125 61C53.025 62.7 53.475 64.6 53.475 66.7C53.475 71.4 51.225 75.275 46.725 78.325C42.225 81.325 36.325 82.825 29.025 82.825C21.725 82.825 16.35 81.775 12.9 79.675C9.5 77.525 7.8 74.075 7.8 69.325V38.2C7.8 34.75 7.125 32 5.775 29.95C12.925 27.35 20.225 26.05 27.675 26.05C35.125 26.05 40.675 27.5 44.325 30.4C48.025 33.3 49.875 36.975 49.875 41.425ZM28.125 49.975C31.075 49.975 33.425 49.25 35.175 47.8C36.925 46.3 37.8 44.4 37.8 42.1C37.8 39.75 36.9 37.85 35.1 36.4C33.35 34.9 30.875 34.15 27.675 34.15C24.525 34.15 21.85 34.475 19.65 35.125V49.9L27.825 49.975C27.925 49.975 28.025 49.975 28.125 49.975ZM19.65 70.3C19.65 73.25 22.825 74.725 29.175 74.725C32.975 74.725 35.95 73.95 38.1 72.4C40.25 70.85 41.325 68.8 41.325 66.25C41.325 63.7 40.25 61.65 38.1 60.1C35.95 58.5 32.975 57.7 29.175 57.7H19.65V70.3ZM63.7227 75.304V55.898C63.7227 53.7487 63.0201 52.302 61.6147 51.558C63.1854 49.7807 65.0867 48.892 67.3187 48.892C70.9974 48.892 73.0227 50.876 73.3947 54.844C75.0481 50.876 77.7967 48.892 81.6407 48.892C83.5834 48.892 85.1747 49.4707 86.4147 50.628C87.6961 51.7853 88.3367 53.3353 88.3367 55.278C88.3367 57.2207 87.8407 58.7707 86.8487 59.928C85.8981 61.044 84.4307 61.602 82.4467 61.602C82.1987 61.602 81.6614 61.5607 80.8347 61.478C81.0001 60.734 81.0827 60.2587 81.0827 60.052C81.0827 59.0187 80.7727 58.2127 80.1527 57.634C79.5741 57.014 78.8507 56.704 77.9827 56.704C75.7507 56.704 74.2421 58.3987 73.4567 61.788V75.614C73.4567 77.846 74.1387 79.3133 75.5027 80.016C73.9321 81.7933 72.0307 82.682 69.7987 82.682C65.7481 82.682 63.7227 80.2227 63.7227 75.304ZM102.483 73.506C102.483 75.5313 103.64 76.544 105.955 76.544C107.65 76.544 109.179 75.7587 110.543 74.188V68.174C105.17 68.4633 102.483 70.2407 102.483 73.506ZM120.277 60.052V74.126C120.277 76.73 121.393 78.3833 123.625 79.086C122.881 80.1193 121.868 80.9873 120.587 81.69C119.347 82.3513 118.024 82.682 116.619 82.682C113.56 82.682 111.659 81.318 110.915 78.59C108.352 81.318 105.149 82.682 101.305 82.682C98.4529 82.682 96.1796 81.9793 94.4849 80.574C92.7902 79.1687 91.9429 77.1847 91.9429 74.622C91.9429 71.4807 93.5756 68.98 96.8409 67.12C100.148 65.2187 104.715 64.2267 110.543 64.144V58.254C110.543 55.4847 109.427 54.1 107.195 54.1C106.286 54.1 105.521 54.3893 104.901 54.968C104.322 55.5053 104.033 56.2493 104.033 57.2C104.033 58.1093 104.364 58.9567 105.025 59.742C103.62 61.23 101.842 61.974 99.6929 61.974C97.5849 61.974 96.0142 61.4987 94.9809 60.548C93.9889 59.5973 93.4929 58.3573 93.4929 56.828C93.4929 54.5133 94.8982 52.612 97.7089 51.124C100.561 49.636 103.868 48.892 107.629 48.892C111.432 48.892 114.49 49.7807 116.805 51.558C119.12 53.3353 120.277 56.1667 120.277 60.052ZM134.868 33.392C136.48 33.392 137.802 33.888 138.836 34.88C139.91 35.8307 140.448 37.112 140.448 38.724C140.448 40.2947 139.766 41.7413 138.402 43.064C137.079 44.3867 135.55 45.048 133.814 45.048C132.078 45.048 130.672 44.552 129.598 43.56C128.564 42.5267 128.048 41.1833 128.048 39.53C128.048 37.8767 128.771 36.4507 130.218 35.252C131.706 34.012 133.256 33.392 134.868 33.392ZM139.332 56.27V75.614C139.332 77.846 140.014 79.3133 141.378 80.016C139.807 81.7933 137.906 82.682 135.674 82.682C131.623 82.682 129.598 80.2227 129.598 75.304V55.898C129.598 53.7487 128.895 52.302 127.49 51.558C129.06 49.7807 130.92 48.892 133.07 48.892C135.26 48.892 136.852 49.4913 137.844 50.69C138.836 51.8887 139.332 53.7487 139.332 56.27ZM178.741 60.052V75.614C178.741 77.846 179.403 79.3133 180.725 80.016C179.237 81.7933 177.357 82.682 175.083 82.682C171.033 82.682 169.007 80.2227 169.007 75.304V61.478C169.007 59.99 168.635 58.8327 167.891 58.006C167.189 57.138 166.176 56.704 164.853 56.704C163.531 56.704 162.249 57.324 161.009 58.564C159.769 59.7627 158.881 61.5607 158.343 63.958V75.614C158.343 77.846 159.025 79.3133 160.389 80.016C158.819 81.7933 156.917 82.682 154.685 82.682C150.635 82.682 148.609 80.2227 148.609 75.304V55.898C148.609 53.7487 147.907 52.302 146.501 51.558C148.072 49.7807 149.911 48.892 152.019 48.892C154.127 48.892 155.677 49.4293 156.669 50.504C157.661 51.5373 158.219 53.1493 158.343 55.34C159.459 53.232 160.989 51.6407 162.931 50.566C164.915 49.45 167.189 48.892 169.751 48.892C172.355 48.892 174.505 49.8427 176.199 51.744C177.894 53.6453 178.741 56.4147 178.741 60.052Z" fill="#2C3333"/>
<path d="M215.4 75.68C215.4 77.2 216.267 77.96 218 77.96C219.44 77.96 220.707 77.2933 221.8 75.96V71.72C219.56 71.8533 217.933 72.28 216.92 73C215.907 73.72 215.4 74.6133 215.4 75.68ZM226.96 66.8V76.48C226.96 78.0533 227.653 79.0133 229.04 79.36C228.16 80.72 226.907 81.4 225.28 81.4C223.387 81.4 222.267 80.4533 221.92 78.56C220.32 80.4533 218.253 81.4 215.72 81.4C213.96 81.4 212.533 80.9467 211.44 80.04C210.347 79.1333 209.8 77.8667 209.8 76.24C209.8 74.24 210.84 72.6267 212.92 71.4C215 70.1733 217.96 69.5333 221.8 69.48V66.2C221.8 63.88 220.88 62.72 219.04 62.72C218.213 62.72 217.56 62.9333 217.08 63.36C216.6 63.7867 216.36 64.32 216.36 64.96C216.36 65.5733 216.56 66.0933 216.96 66.52C216.133 67.2933 215.173 67.68 214.08 67.68C212.987 67.68 212.16 67.4133 211.6 66.88C211.04 66.3467 210.76 65.6533 210.76 64.8C210.76 63.4133 211.6 62.2533 213.28 61.32C214.96 60.3867 216.947 59.92 219.24 59.92C221.56 59.92 223.427 60.4933 224.84 61.64C226.253 62.76 226.96 64.48 226.96 66.8ZM248.949 64.32C248.949 65.1733 248.683 65.84 248.149 66.32C247.616 66.8 246.936 67.04 246.109 67.04C245.309 67.04 244.589 66.8133 243.949 66.36C244.029 66.04 244.069 65.6133 244.069 65.08C244.069 64.5467 243.883 64.0667 243.509 63.64C243.136 63.2133 242.589 63 241.869 63C240.589 63 239.469 63.72 238.509 65.16C237.549 66.6 237.069 68.4533 237.069 70.72C237.069 72.9867 237.576 74.7067 238.589 75.88C239.629 77.0533 240.936 77.64 242.509 77.64C244.749 77.64 246.603 76.8533 248.069 75.28C248.576 75.52 248.829 76.0133 248.829 76.76C248.829 77.9333 248.109 79 246.669 79.96C245.256 80.92 243.576 81.4 241.629 81.4C238.723 81.4 236.403 80.52 234.669 78.76C232.936 77 232.069 74.5467 232.069 71.4C232.069 68.2533 233.069 65.56 235.069 63.32C237.096 61.0533 239.629 59.92 242.669 59.92C244.429 59.92 245.909 60.3333 247.109 61.16C248.336 61.96 248.949 63.0133 248.949 64.32ZM257.939 75.68C257.939 77.2 258.806 77.96 260.539 77.96C261.979 77.96 263.246 77.2933 264.339 75.96V71.72C262.099 71.8533 260.472 72.28 259.459 73C258.446 73.72 257.939 74.6133 257.939 75.68ZM269.499 66.8V76.48C269.499 78.0533 270.192 79.0133 271.579 79.36C270.699 80.72 269.446 81.4 267.819 81.4C265.926 81.4 264.806 80.4533 264.459 78.56C262.859 80.4533 260.792 81.4 258.259 81.4C256.499 81.4 255.072 80.9467 253.979 80.04C252.886 79.1333 252.339 77.8667 252.339 76.24C252.339 74.24 253.379 72.6267 255.459 71.4C257.539 70.1733 260.499 69.5333 264.339 69.48V66.2C264.339 63.88 263.419 62.72 261.579 62.72C260.752 62.72 260.099 62.9333 259.619 63.36C259.139 63.7867 258.899 64.32 258.899 64.96C258.899 65.5733 259.099 66.0933 259.499 66.52C258.672 67.2933 257.712 67.68 256.619 67.68C255.526 67.68 254.699 67.4133 254.139 66.88C253.579 66.3467 253.299 65.6533 253.299 64.8C253.299 63.4133 254.139 62.2533 255.819 61.32C257.499 60.3867 259.486 59.92 261.779 59.92C264.099 59.92 265.966 60.4933 267.379 61.64C268.792 62.76 269.499 64.48 269.499 66.8ZM287.968 64.28C287.142 63.4 286.022 62.96 284.608 62.96C283.222 62.96 282.022 63.6533 281.008 65.04C279.995 66.4267 279.488 68.3333 279.488 70.76C279.488 73.16 279.915 74.96 280.768 76.16C281.622 77.36 282.782 77.96 284.248 77.96C286.035 77.96 287.275 77.12 287.968 75.44V64.28ZM293.128 54V77.52C293.128 78.6667 293.528 79.44 294.328 79.84C293.502 80.88 292.475 81.4 291.248 81.4C289.515 81.4 288.475 80.5867 288.128 78.96C286.875 80.5867 285.075 81.4 282.728 81.4C280.408 81.4 278.395 80.4933 276.688 78.68C274.982 76.8667 274.128 74.36 274.128 71.16C274.128 67.96 275.075 65.2933 276.968 63.16C278.862 61 281.315 59.92 284.328 59.92C285.662 59.92 286.875 60.12 287.968 60.52V53.88C287.968 52.7333 287.555 51.9467 286.728 51.52C287.555 50.5067 288.582 50 289.808 50C292.022 50 293.128 51.3333 293.128 54ZM308.922 68.12C309.456 68.0667 309.842 67.9067 310.082 67.64C310.322 67.3733 310.442 66.84 310.442 66.04C310.442 65.24 310.189 64.5067 309.682 63.84C309.176 63.1733 308.456 62.84 307.522 62.84C306.616 62.84 305.776 63.3467 305.002 64.36C304.256 65.3467 303.762 66.7733 303.522 68.64L308.922 68.12ZM308.922 77.68C311.109 77.68 312.949 76.8933 314.442 75.32C314.949 75.5867 315.202 76.0667 315.202 76.76C315.202 77.88 314.482 78.9333 313.042 79.92C311.629 80.9067 309.949 81.4 308.002 81.4C304.989 81.4 302.602 80.5333 300.842 78.8C299.082 77.0667 298.202 74.6 298.202 71.4C298.202 68.2 299.162 65.4933 301.082 63.28C303.029 61.04 305.402 59.92 308.202 59.92C310.362 59.92 312.136 60.64 313.522 62.08C314.936 63.4933 315.642 65.12 315.642 66.96C315.642 68.3467 315.296 69.36 314.602 70C313.909 70.6133 312.749 70.9333 311.122 70.96L303.402 71.2C303.509 75.52 305.349 77.68 308.922 77.68ZM351.786 67V77.52C351.786 78.6933 352.186 79.4667 352.986 79.84C352.213 80.88 351.186 81.4 349.906 81.4C347.72 81.4 346.626 80.0667 346.626 77.4V67.64C346.626 65.2933 345.613 64.12 343.586 64.12C342.546 64.12 341.546 64.5733 340.586 65.48C339.626 66.3867 338.96 67.6533 338.586 69.28V77.52C338.586 78.6667 338.986 79.44 339.786 79.84C338.96 80.88 337.933 81.4 336.706 81.4C334.52 81.4 333.426 80.0667 333.426 77.4V67.64C333.426 65.2933 332.413 64.12 330.386 64.12C329.346 64.12 328.346 64.5733 327.386 65.48C326.426 66.3867 325.76 67.6533 325.386 69.28V77.52C325.386 78.6667 325.786 79.44 326.586 79.84C325.76 80.88 324.733 81.4 323.506 81.4C321.32 81.4 320.226 80.0667 320.226 77.4V63.8C320.226 62.6267 319.826 61.84 319.026 61.44C319.8 60.4267 320.813 59.92 322.066 59.92C324.28 59.92 325.386 61.2533 325.386 63.92V64.36C326.08 62.9733 327.066 61.8933 328.346 61.12C329.626 60.32 331.04 59.92 332.586 59.92C335.813 59.92 337.746 61.5467 338.386 64.8C339.053 63.28 340.04 62.0933 341.346 61.24C342.68 60.36 344.213 59.92 345.946 59.92C347.68 59.92 349.08 60.52 350.146 61.72C351.24 62.92 351.786 64.68 351.786 67ZM372.273 64C372.54 63.3333 372.673 62.7067 372.673 62.12C372.673 61.5333 372.513 61.0133 372.193 60.56C372.886 60.1333 373.74 59.92 374.753 59.92C375.766 59.92 376.58 60.3867 377.193 61.32C377.486 61.7733 377.633 62.32 377.633 62.96C377.633 63.5733 377.473 64.28 377.153 65.08L369.273 86.12C367.94 89.6667 365.953 91.44 363.313 91.44C362.193 91.44 361.286 91.1467 360.593 90.56C359.9 89.9733 359.553 89.2533 359.553 88.4C359.553 87.5733 359.78 86.8667 360.233 86.28C360.846 86.84 361.54 87.12 362.313 87.12C363.593 87.12 364.513 86.3333 365.073 84.76L366.233 81.4C366.153 81.4 366.086 81.4 366.033 81.4C365.206 81.4 364.433 81.08 363.713 80.44C362.993 79.8 362.46 78.9067 362.113 77.76L357.633 64.16C357.206 62.7467 356.686 61.8133 356.073 61.36C356.98 60.4 357.966 59.92 359.033 59.92C360.126 59.92 360.953 60.2267 361.513 60.84C362.1 61.4267 362.58 62.3733 362.953 63.68L367.313 78.32L372.273 64Z" fill="#206A5D"/>
<circle cx="194" cy="74" r="7" fill="#2C3333"/>
</svg>
