<svg width="231" height="45" viewBox="0 0 231 45" fill="none" xmlns="http://www.w3.org/2000/svg">
<path d="M33.25 10.95C33.25 12.8167 32.6167 14.4 31.35 15.7C30.1167 16.9667 28.3833 17.8333 26.15 18.3C28.5167 18.7 30.6333 19.6333 32.5 21.1C33.4333 21.8667 34.1833 22.8333 34.75 24C35.35 25.1333 35.65 26.4 35.65 27.8C35.65 30.9333 34.15 33.5167 31.15 35.55C28.15 37.55 24.2167 38.55 19.35 38.55C14.4833 38.55 10.9 37.85 8.6 36.45C6.33333 35.0167 5.2 32.7167 5.2 29.55V8.8C5.2 6.5 4.75 4.66666 3.85 3.3C8.61667 1.56666 13.4833 0.699997 18.45 0.699997C23.4167 0.699997 27.1167 1.66666 29.55 3.6C32.0167 5.53333 33.25 7.98333 33.25 10.95ZM18.75 16.65C20.7167 16.65 22.2833 16.1667 23.45 15.2C24.6167 14.2 25.2 12.9333 25.2 11.4C25.2 9.83333 24.6 8.56666 23.4 7.6C22.2333 6.6 20.5833 6.1 18.45 6.1C16.35 6.1 14.5667 6.31667 13.1 6.75V16.6L18.55 16.65C18.6167 16.65 18.6833 16.65 18.75 16.65ZM13.1 30.2C13.1 32.1667 15.2167 33.15 19.45 33.15C21.9833 33.15 23.9667 32.6333 25.4 31.6C26.8333 30.5667 27.55 29.2 27.55 27.5C27.55 25.8 26.8333 24.4333 25.4 23.4C23.9667 22.3333 21.9833 21.8 19.45 21.8H13.1V30.2ZM42.0658 34.112V22.844C42.0658 21.596 41.6578 20.756 40.8418 20.324C41.7538 19.292 42.8578 18.776 44.1538 18.776C46.2898 18.776 47.4658 19.928 47.6818 22.232C48.6418 19.928 50.2378 18.776 52.4698 18.776C53.5978 18.776 54.5218 19.112 55.2418 19.784C55.9858 20.456 56.3578 21.356 56.3578 22.484C56.3578 23.612 56.0698 24.512 55.4938 25.184C54.9418 25.832 54.0898 26.156 52.9378 26.156C52.7938 26.156 52.4818 26.132 52.0018 26.084C52.0978 25.652 52.1458 25.376 52.1458 25.256C52.1458 24.656 51.9658 24.188 51.6058 23.852C51.2698 23.492 50.8498 23.312 50.3458 23.312C49.0498 23.312 48.1738 24.296 47.7178 26.264V34.292C47.7178 35.588 48.1138 36.44 48.9058 36.848C47.9938 37.88 46.8898 38.396 45.5938 38.396C43.2418 38.396 42.0658 36.968 42.0658 34.112ZM64.5717 33.068C64.5717 34.244 65.2437 34.832 66.5877 34.832C67.5717 34.832 68.4597 34.376 69.2517 33.464V29.972C66.1317 30.14 64.5717 31.172 64.5717 33.068ZM74.9037 25.256V33.428C74.9037 34.94 75.5517 35.9 76.8477 36.308C76.4157 36.908 75.8277 37.412 75.0837 37.82C74.3637 38.204 73.5957 38.396 72.7797 38.396C71.0037 38.396 69.8997 37.604 69.4677 36.02C67.9797 37.604 66.1197 38.396 63.8877 38.396C62.2317 38.396 60.9117 37.988 59.9277 37.172C58.9437 36.356 58.4517 35.204 58.4517 33.716C58.4517 31.892 59.3997 30.44 61.2957 29.36C63.2157 28.256 65.8677 27.68 69.2517 27.632V24.212C69.2517 22.604 68.6037 21.8 67.3077 21.8C66.7797 21.8 66.3357 21.968 65.9757 22.304C65.6397 22.616 65.4717 23.048 65.4717 23.6C65.4717 24.128 65.6637 24.62 66.0477 25.076C65.2317 25.94 64.1997 26.372 62.9517 26.372C61.7277 26.372 60.8157 26.096 60.2157 25.544C59.6397 24.992 59.3517 24.272 59.3517 23.384C59.3517 22.04 60.1677 20.936 61.7997 20.072C63.4557 19.208 65.3757 18.776 67.5597 18.776C69.7677 18.776 71.5437 19.292 72.8877 20.324C74.2317 21.356 74.9037 23 74.9037 25.256ZM83.3758 9.776C84.3118 9.776 85.0798 10.064 85.6798 10.64C86.3038 11.192 86.6158 11.936 86.6158 12.872C86.6158 13.784 86.2198 14.624 85.4278 15.392C84.6598 16.16 83.7718 16.544 82.7638 16.544C81.7558 16.544 80.9398 16.256 80.3158 15.68C79.7158 15.08 79.4158 14.3 79.4158 13.34C79.4158 12.38 79.8358 11.552 80.6758 10.856C81.5398 10.136 82.4398 9.776 83.3758 9.776ZM85.9678 23.06V34.292C85.9678 35.588 86.3638 36.44 87.1558 36.848C86.2438 37.88 85.1398 38.396 83.8438 38.396C81.4918 38.396 80.3158 36.968 80.3158 34.112V22.844C80.3158 21.596 79.9078 20.756 79.0918 20.324C80.0038 19.292 81.0838 18.776 82.3318 18.776C83.6038 18.776 84.5278 19.124 85.1038 19.82C85.6798 20.516 85.9678 21.596 85.9678 23.06ZM108.851 25.256V34.292C108.851 35.588 109.235 36.44 110.003 36.848C109.139 37.88 108.047 38.396 106.727 38.396C104.375 38.396 103.199 36.968 103.199 34.112V26.084C103.199 25.22 102.983 24.548 102.551 24.068C102.143 23.564 101.555 23.312 100.787 23.312C100.019 23.312 99.2749 23.672 98.5549 24.392C97.8349 25.088 97.3189 26.132 97.0069 27.524V34.292C97.0069 35.588 97.4029 36.44 98.1949 36.848C97.2829 37.88 96.1789 38.396 94.8829 38.396C92.5309 38.396 91.3549 36.968 91.3549 34.112V22.844C91.3549 21.596 90.9469 20.756 90.1309 20.324C91.0429 19.292 92.1109 18.776 93.3349 18.776C94.5589 18.776 95.4589 19.088 96.0349 19.712C96.6109 20.312 96.9349 21.248 97.0069 22.52C97.6549 21.296 98.5429 20.372 99.6709 19.748C100.823 19.1 102.143 18.776 103.631 18.776C105.143 18.776 106.391 19.328 107.375 20.432C108.359 21.536 108.851 23.144 108.851 25.256Z" fill="#232932"/>
<circle cx="116.5" cy="34.5" r="3.5" fill="#232932"/>
<path d="M128.44 34.808C128.44 35.72 128.96 36.176 130 36.176C130.864 36.176 131.624 35.776 132.28 34.976V32.432C130.936 32.512 129.96 32.768 129.352 33.2C128.744 33.632 128.44 34.168 128.44 34.808ZM135.376 29.48V35.288C135.376 36.232 135.792 36.808 136.624 37.016C136.096 37.832 135.344 38.24 134.368 38.24C133.232 38.24 132.56 37.672 132.352 36.536C131.392 37.672 130.152 38.24 128.632 38.24C127.576 38.24 126.72 37.968 126.064 37.424C125.408 36.88 125.08 36.12 125.08 35.144C125.08 33.944 125.704 32.976 126.952 32.24C128.2 31.504 129.976 31.12 132.28 31.088V29.12C132.28 27.728 131.728 27.032 130.624 27.032C130.128 27.032 129.736 27.16 129.448 27.416C129.16 27.672 129.016 27.992 129.016 28.376C129.016 28.744 129.136 29.056 129.376 29.312C128.88 29.776 128.304 30.008 127.648 30.008C126.992 30.008 126.496 29.848 126.16 29.528C125.824 29.208 125.656 28.792 125.656 28.28C125.656 27.448 126.16 26.752 127.168 26.192C128.176 25.632 129.368 25.352 130.744 25.352C132.136 25.352 133.256 25.696 134.104 26.384C134.952 27.056 135.376 28.088 135.376 29.48ZM148.57 27.992C148.57 28.504 148.41 28.904 148.09 29.192C147.77 29.48 147.362 29.624 146.866 29.624C146.386 29.624 145.954 29.488 145.57 29.216C145.618 29.024 145.642 28.768 145.642 28.448C145.642 28.128 145.53 27.84 145.306 27.584C145.082 27.328 144.754 27.2 144.322 27.2C143.554 27.2 142.882 27.632 142.306 28.496C141.73 29.36 141.442 30.472 141.442 31.832C141.442 33.192 141.746 34.224 142.354 34.928C142.978 35.632 143.762 35.984 144.706 35.984C146.05 35.984 147.162 35.512 148.042 34.568C148.346 34.712 148.498 35.008 148.498 35.456C148.498 36.16 148.066 36.8 147.202 37.376C146.354 37.952 145.346 38.24 144.178 38.24C142.434 38.24 141.042 37.712 140.002 36.656C138.962 35.6 138.442 34.128 138.442 32.24C138.442 30.352 139.042 28.736 140.242 27.392C141.458 26.032 142.978 25.352 144.802 25.352C145.858 25.352 146.746 25.6 147.466 26.096C148.202 26.576 148.57 27.208 148.57 27.992ZM153.963 34.808C153.963 35.72 154.483 36.176 155.523 36.176C156.387 36.176 157.147 35.776 157.803 34.976V32.432C156.459 32.512 155.483 32.768 154.875 33.2C154.267 33.632 153.963 34.168 153.963 34.808ZM160.899 29.48V35.288C160.899 36.232 161.315 36.808 162.147 37.016C161.619 37.832 160.867 38.24 159.891 38.24C158.755 38.24 158.083 37.672 157.875 36.536C156.915 37.672 155.675 38.24 154.155 38.24C153.099 38.24 152.243 37.968 151.587 37.424C150.931 36.88 150.603 36.12 150.603 35.144C150.603 33.944 151.227 32.976 152.475 32.24C153.723 31.504 155.499 31.12 157.803 31.088V29.12C157.803 27.728 157.251 27.032 156.147 27.032C155.651 27.032 155.259 27.16 154.971 27.416C154.683 27.672 154.539 27.992 154.539 28.376C154.539 28.744 154.659 29.056 154.899 29.312C154.403 29.776 153.827 30.008 153.171 30.008C152.515 30.008 152.019 29.848 151.683 29.528C151.347 29.208 151.179 28.792 151.179 28.28C151.179 27.448 151.683 26.752 152.691 26.192C153.699 25.632 154.891 25.352 156.267 25.352C157.659 25.352 158.779 25.696 159.627 26.384C160.475 27.056 160.899 28.088 160.899 29.48ZM171.981 27.968C171.485 27.44 170.813 27.176 169.965 27.176C169.133 27.176 168.413 27.592 167.805 28.424C167.197 29.256 166.893 30.4 166.893 31.856C166.893 33.296 167.149 34.376 167.661 35.096C168.173 35.816 168.869 36.176 169.749 36.176C170.821 36.176 171.565 35.672 171.981 34.664V27.968ZM175.077 21.8V35.912C175.077 36.6 175.317 37.064 175.797 37.304C175.301 37.928 174.685 38.24 173.949 38.24C172.909 38.24 172.285 37.752 172.077 36.776C171.325 37.752 170.245 38.24 168.837 38.24C167.445 38.24 166.237 37.696 165.213 36.608C164.189 35.52 163.677 34.016 163.677 32.096C163.677 30.176 164.245 28.576 165.381 27.296C166.517 26 167.989 25.352 169.797 25.352C170.597 25.352 171.325 25.472 171.981 25.712V21.728C171.981 21.04 171.733 20.568 171.237 20.312C171.733 19.704 172.349 19.4 173.085 19.4C174.413 19.4 175.077 20.2 175.077 21.8ZM184.553 30.272C184.873 30.24 185.105 30.144 185.249 29.984C185.393 29.824 185.465 29.504 185.465 29.024C185.465 28.544 185.313 28.104 185.009 27.704C184.705 27.304 184.273 27.104 183.713 27.104C183.169 27.104 182.665 27.408 182.201 28.016C181.753 28.608 181.457 29.464 181.313 30.584L184.553 30.272ZM184.553 36.008C185.865 36.008 186.969 35.536 187.865 34.592C188.169 34.752 188.321 35.04 188.321 35.456C188.321 36.128 187.889 36.76 187.025 37.352C186.177 37.944 185.169 38.24 184.001 38.24C182.193 38.24 180.761 37.72 179.705 36.68C178.649 35.64 178.121 34.16 178.121 32.24C178.121 30.32 178.697 28.696 179.849 27.368C181.017 26.024 182.441 25.352 184.121 25.352C185.417 25.352 186.481 25.784 187.313 26.648C188.161 27.496 188.585 28.472 188.585 29.576C188.585 30.408 188.377 31.016 187.961 31.4C187.545 31.768 186.849 31.96 185.873 31.976L181.241 32.12C181.305 34.712 182.409 36.008 184.553 36.008ZM210.272 29.6V35.912C210.272 36.616 210.512 37.08 210.992 37.304C210.528 37.928 209.912 38.24 209.144 38.24C207.832 38.24 207.176 37.44 207.176 35.84V29.984C207.176 28.576 206.568 27.872 205.352 27.872C204.728 27.872 204.128 28.144 203.552 28.688C202.976 29.232 202.576 29.992 202.352 30.968V35.912C202.352 36.6 202.592 37.064 203.072 37.304C202.576 37.928 201.96 38.24 201.224 38.24C199.912 38.24 199.256 37.44 199.256 35.84V29.984C199.256 28.576 198.648 27.872 197.432 27.872C196.808 27.872 196.208 28.144 195.632 28.688C195.056 29.232 194.656 29.992 194.432 30.968V35.912C194.432 36.6 194.672 37.064 195.152 37.304C194.656 37.928 194.04 38.24 193.304 38.24C191.992 38.24 191.336 37.44 191.336 35.84V27.68C191.336 26.976 191.096 26.504 190.616 26.264C191.08 25.656 191.688 25.352 192.44 25.352C193.768 25.352 194.432 26.152 194.432 27.752V28.016C194.848 27.184 195.44 26.536 196.208 26.072C196.976 25.592 197.824 25.352 198.752 25.352C200.688 25.352 201.848 26.328 202.232 28.28C202.632 27.368 203.224 26.656 204.008 26.144C204.808 25.616 205.728 25.352 206.768 25.352C207.808 25.352 208.648 25.712 209.288 26.432C209.944 27.152 210.272 28.208 210.272 29.6ZM222.564 27.8C222.724 27.4 222.804 27.024 222.804 26.672C222.804 26.32 222.708 26.008 222.516 25.736C222.932 25.48 223.444 25.352 224.052 25.352C224.66 25.352 225.148 25.632 225.516 26.192C225.692 26.464 225.78 26.792 225.78 27.176C225.78 27.544 225.684 27.968 225.492 28.448L220.764 41.072C219.964 43.2 218.772 44.264 217.188 44.264C216.516 44.264 215.972 44.088 215.556 43.736C215.14 43.384 214.932 42.952 214.932 42.44C214.932 41.944 215.068 41.52 215.34 41.168C215.708 41.504 216.124 41.672 216.588 41.672C217.356 41.672 217.908 41.2 218.244 40.256L218.94 38.24C218.892 38.24 218.852 38.24 218.82 38.24C218.324 38.24 217.86 38.048 217.428 37.664C216.996 37.28 216.676 36.744 216.468 36.056L213.78 27.896C213.524 27.048 213.212 26.488 212.844 26.216C213.388 25.64 213.98 25.352 214.62 25.352C215.276 25.352 215.772 25.536 216.108 25.904C216.46 26.256 216.748 26.824 216.972 27.608L219.588 36.392L222.564 27.8Z" fill="#EBECF1"/>
</svg>
